
<svg xmlns="http://www.w3.org/2000/svg">

<symbol  id='basket' viewBox="0 0 36 36" fill="none" >
  <path d="M4.5 13.5C4.5 11.8431 5.84314 10.5 7.5 10.5H28.5C30.1569 10.5 31.5 11.8431 31.5 13.5V30C31.5 31.6569 30.1569 33 28.5 33H7.5C5.84314 33 4.5 31.6569 4.5 30V13.5Z" stroke="white" stroke-width="2" stroke-linecap="round" stroke-linejoin="round" />
  <path d="M12 15V9C12 5.68629 14.6863 3 18 3C21.3137 3 24 5.68629 24 9V14.5332" stroke="white" stroke-width="2" stroke-linecap="round" stroke-linejoin="round" />
</symbol>
<symbol id='menu-burger' viewBox="0 0 40 40" fill="none" >
  <path d="M8.33337 11.6655H31.6667" stroke="white" stroke-width="2.58934" stroke-linecap="round" stroke-linejoin="round" />
  <path d="M8.33337 20H31.6667" stroke="white" stroke-width="2.58934" stroke-linecap="round" stroke-linejoin="round" />
  <path d="M8.33337 28.333H31.6667" stroke="white" stroke-width="2.58934" stroke-linecap="round" stroke-linejoin="round" />
</symbol>
<symbol id='menu-cross' viewBox="0 0 24 24" fill="#fff" >
  <path d="M18 6L6 18M6 6L18 18" stroke="#C9C69B" stroke-width="2" stroke-linecap="round" stroke-linejoin="round" />
</symbol>




</svg>

